<?xml version="1.0" encoding="UTF-8" standalone="no"?>
<!-- Created with Inkscape (http://www.inkscape.org/) -->

<svg
   xmlns:dc="http://purl.org/dc/elements/1.1/"
   xmlns:cc="http://creativecommons.org/ns#"
   xmlns:rdf="http://www.w3.org/1999/02/22-rdf-syntax-ns#"
   xmlns:svg="http://www.w3.org/2000/svg"
   xmlns="http://www.w3.org/2000/svg"
   xmlns:sodipodi="http://sodipodi.sourceforge.net/DTD/sodipodi-0.dtd"
   xmlns:inkscape="http://www.inkscape.org/namespaces/inkscape"
   width="128"
   height="128"
   viewBox="0 0 33.866666 33.866666"
   version="1.1"
   id="svg3719"
   inkscape:version="0.92.4 5da689c313, 2019-01-14"
   sodipodi:docname="net.olback.Perif.svg">
  <defs
     id="defs3713" />
  <sodipodi:namedview
     id="base"
     pagecolor="#ffffff"
     bordercolor="#666666"
     borderopacity="1.0"
     inkscape:pageopacity="0.0"
     inkscape:pageshadow="2"
     inkscape:zoom="5.6568542"
     inkscape:cx="88.192088"
     inkscape:cy="71.747791"
     inkscape:document-units="mm"
     inkscape:current-layer="layer1"
     showgrid="false"
     units="px"
     inkscape:window-width="1920"
     inkscape:window-height="1050"
     inkscape:window-x="1920"
     inkscape:window-y="0"
     inkscape:window-maximized="1" />
  <metadata
     id="metadata3716">
    <rdf:RDF>
      <cc:Work
         rdf:about="">
        <dc:format>image/svg+xml</dc:format>
        <dc:type
           rdf:resource="http://purl.org/dc/dcmitype/StillImage" />
        <dc:title></dc:title>
      </cc:Work>
    </rdf:RDF>
  </metadata>
  <g
     inkscape:label="Layer 1"
     inkscape:groupmode="layer"
     id="layer1"
     transform="translate(0,-263.13332)">
    <path
       style="fill:#e6e6e6;stroke-width:0.06221251"
       d="m 15.336212,295.92778 c -2.019919,-0.23757 -3.712541,-0.72725 -5.4436343,-1.57484 -4.2034419,-2.05814 -7.3137196,-5.92003 -8.42914,-10.4661 -0.353184,-1.43945 -0.4051044,-1.92446 -0.4051044,-3.78419 0,-1.83549 0.054569,-2.36671 0.3834372,-3.73272 1.4660724,-6.08959 6.4163232,-10.78538 12.5568645,-11.9114 5.191943,-0.95207 10.432106,0.67369 14.147833,4.38936 2.428966,2.42893 3.986723,5.52053 4.488725,8.90854 0.721822,4.8716 -0.835751,9.75502 -4.252921,13.33406 -2.035972,2.13242 -4.61914,3.65418 -7.443491,4.38502 -1.400324,0.36234 -2.066769,0.44329 -3.798392,0.46134 -0.872536,0.009 -1.684417,0.005 -1.804177,-0.009 z"
       id="path4578"
       inkscape:connector-curvature="0" />
    <g
       id="g4601"
       transform="matrix(0.08681636,0,0,0.08681647,5.8208378,199.84566)">
      <path
         id="path4599"
         d="m 54.241,842.41 c -0.47597,-0.007 -0.95982,0.005 -1.438,0.0167 -3.8255,0.097 -7.7038,0.77663 -11.333,1.6092 -3.3992,0.77986 -7.0506,2.0811 -9.3643,4.6907 -3.6256,4.0892 -5.5124,15.425 -5.5124,15.425 0,0 -10.619,7.0994 -14.329,12.138 -3.4896,4.7395 -5.3216,10.576 -6.8991,16.246 -1.0445,3.7543 -1.291,7.6918 -1.6435,11.573 -2.3278,25.63 -5.0152,48.958 -3.0301,77.157 0.70842,10.064 5.0934,14.999 11.025,19.567 5.4892,4.2276 13.256,6.215 20.115,5.2385 5.3841,-0.7665 10.178,-4.4895 14.004,-8.3542 7.9784,-8.0589 15.483,-28.016 17.137,-29.394 1.6533,-1.3777 3.8519,-4.6907 3.8519,-4.6907 0,0 5.2928,4.7838 8.5426,6.0603 4.5704,1.7951 9.7365,2.5903 14.603,1.9345 6.323,-0.85208 12.786,-3.2986 17.633,-7.4469 3.447,-2.95 7.173,-11.573 7.173,-11.573 h 26.449 c 0,0 3.726,8.6227 7.173,11.573 4.8474,4.1484 11.31,6.5948 17.633,7.4469 4.8663,0.65579 10.032,-0.13934 14.603,-1.9345 3.2498,-1.2764 8.5426,-6.0603 8.5426,-6.0603 0,0 2.1986,3.313 3.8518,4.6907 1.6533,1.3778 9.141,21.335 17.119,29.394 3.8262,3.8648 8.6367,7.5878 14.021,8.3542 6.8593,0.9765 14.626,-1.0109 20.115,-5.2385 5.9315,-4.5682 10.316,-9.5038 11.025,-19.567 1.985,-28.199 -0.70235,-51.527 -3.0301,-77.157 -0.35248,-3.8809 -0.61614,-7.8184 -1.6606,-11.573 -1.5775,-5.6702 -3.3924,-11.507 -6.882,-16.246 -3.7096,-5.0382 -14.329,-12.138 -14.329,-12.138 0,0 -1.9041,-11.335 -5.5296,-15.425 -2.3137,-2.6096 -5.9479,-3.9109 -9.3472,-4.6907 -7.2584,-1.6652 -15.525,-2.7085 -22.341,0.29103 -3.9204,1.7252 -6.595,6.0577 -8.7994,9.3643 -2.2044,3.3066 -3.304,13.781 -3.304,13.781 l -38.313,-0.15416 v -0.11974 l -13.764,0.0514 -13.781,-0.0514 v 0.11974 l -38.313,0.15416 c 0,0 -1.0996,-10.475 -3.304,-13.781 -2.2044,-3.3066 -4.879,-7.6391 -8.7994,-9.3643 -2.9821,-1.3123 -6.2379,-1.8667 -9.5698,-1.9174 z m 155.5,27.511 c 5.1807,0 9.3814,4.2008 9.3814,9.3814 0,5.1807 -4.2008,9.3814 -9.3814,9.3814 -5.1807,0 -9.3814,-4.2008 -9.3814,-9.3814 0,-5.1807 4.2007,-9.3814 9.3814,-9.3814 z m -171.31,5.307 H 53.53 v 11.23 c 0,0 -5.4723,7.2084 -7.5496,7.1217 -2.2054,-0.092 -7.5496,-7.1217 -7.5496,-7.1217 z m 148.55,14.62 c 5.1807,0 9.3814,4.2008 9.3814,9.3814 0,5.1807 -4.2008,9.3814 -9.3814,9.3814 -5.1807,0 -9.3814,-4.2008 -9.3814,-9.3814 0,-5.1807 4.2008,-9.3814 9.3814,-9.3814 z m 45.538,0 c 5.1807,0 9.3814,4.2008 9.3814,9.3814 0,5.1807 -4.2007,9.3814 -9.3814,9.3814 -5.1807,0 -9.3814,-4.2008 -9.3814,-9.3814 0,-5.1807 4.2007,-9.3814 9.3814,-9.3814 z m -208.86,0.68478 h 11.23 c 0,0 7.0296,5.3614 7.1217,7.5668 0.0868,2.0773 -7.1217,7.5496 -7.1217,7.5496 h -11.23 z m 33.417,0 h 11.23 v 15.116 h -11.23 c 0,0 -7.2084,-5.4723 -7.1217,-7.5496 0.092,-2.2054 7.1217,-7.5668 7.1217,-7.5668 z m 88.705,4.023 14.687,4.8106 -14.687,4.8277 z m -51.345,0.33876 h 14.633 v 8.9607 H 94.436 Z m -48.453,7.7245 c 2.0773,-0.0868 7.5496,7.1217 7.5496,7.1217 v 11.23 h -15.099 v -11.23 c 0,0 5.3442,-7.0296 7.5496,-7.1217 z m 163.76,7.173 c 5.1807,0 9.3814,4.2008 9.3814,9.3814 0,5.1807 -4.2008,9.3814 -9.3814,9.3814 -5.1807,0 -9.3814,-4.2008 -9.3814,-9.3814 0,-5.1807 4.2007,-9.3814 9.3814,-9.3814 z m -123.66,16.4 c 10.12,0 18.318,8.1976 18.318,18.318 0,10.1204 -8.1976,18.335 -18.318,18.335 -10.1204,0 -18.318,-8.2148 -18.318,-18.335 0,-10.1202 8.1977,-18.318 18.318,-18.318 z m 82.721,0 c 10.12,0 18.318,8.1976 18.318,18.318 0,10.1204 -8.1976,18.335 -18.318,18.335 -10.1204,0 -18.318,-8.2148 -18.318,-18.335 0,-10.1202 8.1976,-18.318 18.318,-18.318 z"
         inkscape:connector-curvature="0"
         style="fill:#212121" />
    </g>
  </g>
</svg>
